<mxfile host="app.diagrams.net" agent="Mozilla/5.0 (Windows NT 10.0; Win64; x64) AppleWebKit/537.36 (KHTML, like Gecko) Chrome/137.0.0.0 Safari/537.36" version="27.0.6" pages="2">
  <diagram name="Page-1" id="e7e014a7-5840-1c2e-5031-d8a46d1fe8dd">
    <mxGraphModel dx="1134" dy="1292" grid="1" gridSize="10" guides="1" tooltips="1" connect="1" arrows="1" fold="1" page="1" pageScale="1" pageWidth="1169" pageHeight="826" background="none" math="0" shadow="0">
      <root>
        <mxCell id="0" />
        <mxCell id="1" parent="0" />
        <mxCell id="2" value="Main" style="swimlane;whiteSpace=wrap;startSize=23;" parent="1" vertex="1">
          <mxGeometry x="164.5" y="128" width="280" height="570" as="geometry" />
        </mxCell>
        <mxCell id="5" value="" style="ellipse;shape=startState;fillColor=#000000;strokeColor=#ff0000;" parent="2" vertex="1">
          <mxGeometry x="100" y="40" width="30" height="30" as="geometry" />
        </mxCell>
        <mxCell id="6" value="" style="edgeStyle=elbowEdgeStyle;elbow=horizontal;verticalAlign=bottom;endArrow=open;endSize=8;strokeColor=#FF0000;endFill=1;rounded=0" parent="2" source="5" target="7" edge="1">
          <mxGeometry x="100" y="40" as="geometry">
            <mxPoint x="115" y="110" as="targetPoint" />
          </mxGeometry>
        </mxCell>
        <mxCell id="7" value="idle" style="" parent="2" vertex="1">
          <mxGeometry x="60" y="110" width="110" height="50" as="geometry" />
        </mxCell>
        <mxCell id="8" value="user action" style="" parent="2" vertex="1">
          <mxGeometry x="60" y="220" width="110" height="50" as="geometry" />
        </mxCell>
        <mxCell id="9" value="" style="endArrow=open;strokeColor=#FF0000;endFill=1;rounded=0" parent="2" source="7" target="8" edge="1">
          <mxGeometry relative="1" as="geometry" />
        </mxCell>
        <mxCell id="10" value="post command" style="" parent="2" vertex="1">
          <mxGeometry x="60" y="325" width="110" height="50" as="geometry" />
        </mxCell>
        <mxCell id="11" value="" style="endArrow=open;strokeColor=#FF0000;endFill=1;rounded=0" parent="2" source="8" target="10" edge="1">
          <mxGeometry relative="1" as="geometry" />
        </mxCell>
        <mxCell id="12" value="" style="edgeStyle=elbowEdgeStyle;elbow=horizontal;strokeColor=#FF0000;endArrow=open;endFill=1;rounded=0" parent="2" source="10" target="7" edge="1">
          <mxGeometry width="100" height="100" relative="1" as="geometry">
            <mxPoint x="160" y="290" as="sourcePoint" />
            <mxPoint x="260" y="190" as="targetPoint" />
            <Array as="points">
              <mxPoint x="30" y="250" />
            </Array>
          </mxGeometry>
        </mxCell>
        <mxCell id="3" value="BLDC Motor Controller" style="swimlane;whiteSpace=wrap" parent="1" vertex="1">
          <mxGeometry x="444.5" y="128" width="280" height="570" as="geometry" />
        </mxCell>
        <mxCell id="13" value="" style="ellipse;shape=startState;fillColor=#000000;strokeColor=#ff0000;" parent="3" vertex="1">
          <mxGeometry x="60" y="40" width="30" height="30" as="geometry" />
        </mxCell>
        <mxCell id="14" value="" style="edgeStyle=elbowEdgeStyle;elbow=horizontal;verticalAlign=bottom;endArrow=open;endSize=8;strokeColor=#FF0000;endFill=1;rounded=0" parent="3" source="13" target="15" edge="1">
          <mxGeometry x="40" y="20" as="geometry">
            <mxPoint x="55" y="90" as="targetPoint" />
          </mxGeometry>
        </mxCell>
        <mxCell id="15" value="idle" style="" parent="3" vertex="1">
          <mxGeometry x="20" y="110" width="110" height="50" as="geometry" />
        </mxCell>
        <mxCell id="16" value="check for &#xa;new commands" style="" parent="3" vertex="1">
          <mxGeometry x="20" y="220" width="110" height="50" as="geometry" />
        </mxCell>
        <mxCell id="17" value="" style="endArrow=open;strokeColor=#FF0000;endFill=1;rounded=0" parent="3" source="15" target="16" edge="1">
          <mxGeometry relative="1" as="geometry" />
        </mxCell>
        <mxCell id="18" value="command queue" style="" parent="3" vertex="1">
          <mxGeometry x="20" y="325" width="110" height="50" as="geometry" />
        </mxCell>
        <mxCell id="19" value="" style="endArrow=open;strokeColor=#FF0000;endFill=1;rounded=0" parent="3" source="16" target="18" edge="1">
          <mxGeometry relative="1" as="geometry" />
        </mxCell>
        <mxCell id="21" value="queue empty" style="rhombus;fillColor=#ffffc0;strokeColor=#ff0000;" parent="3" vertex="1">
          <mxGeometry x="150" y="225" width="80" height="40" as="geometry" />
        </mxCell>
        <mxCell id="22" value="yes" style="edgeStyle=elbowEdgeStyle;elbow=horizontal;align=left;verticalAlign=bottom;endArrow=open;endSize=8;strokeColor=#FF0000;exitX=0.5;exitY=0;endFill=1;rounded=0;entryX=0.75;entryY=0.5;entryPerimeter=0" parent="3" source="21" target="25" edge="1">
          <mxGeometry x="-1" relative="1" as="geometry">
            <mxPoint x="160" y="150" as="targetPoint" />
            <Array as="points">
              <mxPoint x="190" y="180" />
            </Array>
          </mxGeometry>
        </mxCell>
        <mxCell id="23" value="no" style="edgeStyle=elbowEdgeStyle;elbow=horizontal;align=left;verticalAlign=top;endArrow=open;endSize=8;strokeColor=#FF0000;endFill=1;rounded=0" parent="3" source="21" target="30" edge="1">
          <mxGeometry x="-1" relative="1" as="geometry">
            <mxPoint x="190" y="305" as="targetPoint" />
          </mxGeometry>
        </mxCell>
        <mxCell id="24" value="" style="endArrow=open;strokeColor=#FF0000;endFill=1;rounded=0" parent="3" source="16" target="21" edge="1">
          <mxGeometry relative="1" as="geometry" />
        </mxCell>
        <mxCell id="25" value="" style="shape=line;strokeWidth=6;strokeColor=#ff0000;rotation=90" parent="3" vertex="1">
          <mxGeometry x="130" y="127.5" width="50" height="15" as="geometry" />
        </mxCell>
        <mxCell id="26" value="" style="edgeStyle=elbowEdgeStyle;elbow=horizontal;verticalAlign=bottom;endArrow=open;endSize=8;strokeColor=#FF0000;endFill=1;rounded=0" parent="3" source="25" target="15" edge="1">
          <mxGeometry x="130" y="90" as="geometry">
            <mxPoint x="230" y="140" as="targetPoint" />
          </mxGeometry>
        </mxCell>
        <mxCell id="30" value="dispatch&#xa;command&#xa;worker thread" style="" parent="3" vertex="1">
          <mxGeometry x="140" y="325" width="110" height="50" as="geometry" />
        </mxCell>
        <mxCell id="31" value="critical&#xa;section" style="shape=note;whiteSpace=wrap;size=17" parent="3" vertex="1">
          <mxGeometry x="105" y="490" width="100" height="50" as="geometry" />
        </mxCell>
        <mxCell id="32" value="" style="endArrow=none;strokeColor=#FF0000;endFill=0;rounded=0;dashed=1" parent="3" source="18" target="31" edge="1">
          <mxGeometry relative="1" as="geometry" />
        </mxCell>
        <mxCell id="34" value="" style="whiteSpace=wrap;strokeColor=#FF0000;fillColor=#FF0000" parent="3" vertex="1">
          <mxGeometry x="245" y="395" width="5" height="45" as="geometry" />
        </mxCell>
        <mxCell id="41" value="" style="edgeStyle=elbowEdgeStyle;elbow=horizontal;entryX=0;entryY=0.5;strokeColor=#FF0000;endArrow=open;endFill=1;rounded=0" parent="3" source="30" target="34" edge="1">
          <mxGeometry width="100" height="100" relative="1" as="geometry">
            <mxPoint x="60" y="480" as="sourcePoint" />
            <mxPoint x="160" y="380" as="targetPoint" />
            <Array as="points">
              <mxPoint x="195" y="400" />
            </Array>
          </mxGeometry>
        </mxCell>
        <mxCell id="4" value="Thread 3" style="swimlane;whiteSpace=wrap" parent="1" vertex="1">
          <mxGeometry x="724.5" y="128" width="280" height="570" as="geometry" />
        </mxCell>
        <mxCell id="33" value="process&#xa;command" style="" parent="4" vertex="1">
          <mxGeometry x="90" y="405" width="110" height="50" as="geometry" />
        </mxCell>
        <mxCell id="35" value="" style="edgeStyle=elbowEdgeStyle;elbow=horizontal;strokeColor=#FF0000;endArrow=open;endFill=1;rounded=0;entryX=0.25;entryY=0.5;entryPerimeter=0" parent="4" target="25" edge="1">
          <mxGeometry width="100" height="100" relative="1" as="geometry">
            <mxPoint x="-30" y="410" as="sourcePoint" />
            <mxPoint x="-120" y="120" as="targetPoint" />
            <Array as="points">
              <mxPoint x="-10" y="135" />
            </Array>
          </mxGeometry>
        </mxCell>
        <mxCell id="37" value="" style="edgeStyle=none;strokeColor=#FF0000;endArrow=open;endFill=1;rounded=0" parent="4" target="33" edge="1">
          <mxGeometry width="100" height="100" relative="1" as="geometry">
            <mxPoint x="-30" y="429.5" as="sourcePoint" />
            <mxPoint x="90" y="429.5" as="targetPoint" />
          </mxGeometry>
        </mxCell>
        <mxCell id="38" value="" style="ellipse;shape=endState;fillColor=#000000;strokeColor=#ff0000" parent="4" vertex="1">
          <mxGeometry x="130" y="500" width="30" height="30" as="geometry" />
        </mxCell>
        <mxCell id="39" value="" style="endArrow=open;strokeColor=#FF0000;endFill=1;rounded=0" parent="4" source="33" target="38" edge="1">
          <mxGeometry relative="1" as="geometry" />
        </mxCell>
        <mxCell id="20" value="" style="endArrow=open;strokeColor=#FF0000;endFill=1;rounded=0" parent="1" source="10" target="18" edge="1">
          <mxGeometry relative="1" as="geometry" />
        </mxCell>
      </root>
    </mxGraphModel>
  </diagram>
  <diagram id="3Nm-kwNNi2VB1rg_QrVI" name="Page-2">
    <mxGraphModel dx="1552" dy="1047" grid="0" gridSize="10" guides="1" tooltips="1" connect="1" arrows="1" fold="1" page="0" pageScale="1" pageWidth="1100" pageHeight="850" math="0" shadow="0">
      <root>
        <mxCell id="0" />
        <mxCell id="1" parent="0" />
        <mxCell id="L-9knCCjojrNT6zz0xn1-5" value="Main" style="swimlane;fontStyle=1;align=center;verticalAlign=top;childLayout=stackLayout;horizontal=1;startSize=26;horizontalStack=0;resizeParent=1;resizeParentMax=0;resizeLast=0;collapsible=1;marginBottom=0;whiteSpace=wrap;html=1;" vertex="1" parent="1">
          <mxGeometry x="-216" y="-41" width="160" height="86" as="geometry" />
        </mxCell>
        <mxCell id="L-9knCCjojrNT6zz0xn1-6" value="+ field: type" style="text;strokeColor=none;fillColor=none;align=left;verticalAlign=top;spacingLeft=4;spacingRight=4;overflow=hidden;rotatable=0;points=[[0,0.5],[1,0.5]];portConstraint=eastwest;whiteSpace=wrap;html=1;" vertex="1" parent="L-9knCCjojrNT6zz0xn1-5">
          <mxGeometry y="26" width="160" height="26" as="geometry" />
        </mxCell>
        <mxCell id="L-9knCCjojrNT6zz0xn1-7" value="" style="line;strokeWidth=1;fillColor=none;align=left;verticalAlign=middle;spacingTop=-1;spacingLeft=3;spacingRight=3;rotatable=0;labelPosition=right;points=[];portConstraint=eastwest;strokeColor=inherit;" vertex="1" parent="L-9knCCjojrNT6zz0xn1-5">
          <mxGeometry y="52" width="160" height="8" as="geometry" />
        </mxCell>
        <mxCell id="L-9knCCjojrNT6zz0xn1-8" value="+ app_main(void): void" style="text;strokeColor=none;fillColor=none;align=left;verticalAlign=top;spacingLeft=4;spacingRight=4;overflow=hidden;rotatable=0;points=[[0,0.5],[1,0.5]];portConstraint=eastwest;whiteSpace=wrap;html=1;" vertex="1" parent="L-9knCCjojrNT6zz0xn1-5">
          <mxGeometry y="60" width="160" height="26" as="geometry" />
        </mxCell>
        <mxCell id="L-9knCCjojrNT6zz0xn1-9" value="BLDC Motor Control" style="swimlane;fontStyle=1;align=center;verticalAlign=top;childLayout=stackLayout;horizontal=1;startSize=26;horizontalStack=0;resizeParent=1;resizeParentMax=0;resizeLast=0;collapsible=1;marginBottom=0;whiteSpace=wrap;html=1;" vertex="1" parent="1">
          <mxGeometry x="6" y="-49" width="259" height="164" as="geometry" />
        </mxCell>
        <mxCell id="L-9knCCjojrNT6zz0xn1-126" value="+ FOC_MODULATION: enum" style="text;strokeColor=none;fillColor=none;align=left;verticalAlign=top;spacingLeft=4;spacingRight=4;overflow=hidden;rotatable=0;points=[[0,0.5],[1,0.5]];portConstraint=eastwest;whiteSpace=wrap;html=1;" vertex="1" parent="L-9knCCjojrNT6zz0xn1-9">
          <mxGeometry y="26" width="259" height="26" as="geometry" />
        </mxCell>
        <mxCell id="L-9knCCjojrNT6zz0xn1-10" value="+ trap_120_map[6][3] : int&lt;div&gt;&lt;br&gt;&lt;/div&gt;" style="text;strokeColor=none;fillColor=none;align=left;verticalAlign=top;spacingLeft=4;spacingRight=4;overflow=hidden;rotatable=0;points=[[0,0.5],[1,0.5]];portConstraint=eastwest;whiteSpace=wrap;html=1;" vertex="1" parent="L-9knCCjojrNT6zz0xn1-9">
          <mxGeometry y="52" width="259" height="26" as="geometry" />
        </mxCell>
        <mxCell id="L-9knCCjojrNT6zz0xn1-114" value="+ sin" style="text;strokeColor=none;fillColor=none;align=left;verticalAlign=top;spacingLeft=4;spacingRight=4;overflow=hidden;rotatable=0;points=[[0,0.5],[1,0.5]];portConstraint=eastwest;whiteSpace=wrap;html=1;" vertex="1" parent="L-9knCCjojrNT6zz0xn1-9">
          <mxGeometry y="78" width="259" height="26" as="geometry" />
        </mxCell>
        <mxCell id="L-9knCCjojrNT6zz0xn1-11" value="" style="line;strokeWidth=1;fillColor=none;align=left;verticalAlign=middle;spacingTop=-1;spacingLeft=3;spacingRight=3;rotatable=0;labelPosition=right;points=[];portConstraint=eastwest;strokeColor=inherit;" vertex="1" parent="L-9knCCjojrNT6zz0xn1-9">
          <mxGeometry y="104" width="259" height="8" as="geometry" />
        </mxCell>
        <mxCell id="L-9knCCjojrNT6zz0xn1-110" value="+ method(type): type" style="text;strokeColor=none;fillColor=none;align=left;verticalAlign=top;spacingLeft=4;spacingRight=4;overflow=hidden;rotatable=0;points=[[0,0.5],[1,0.5]];portConstraint=eastwest;whiteSpace=wrap;html=1;" vertex="1" parent="L-9knCCjojrNT6zz0xn1-9">
          <mxGeometry y="112" width="259" height="26" as="geometry" />
        </mxCell>
        <mxCell id="L-9knCCjojrNT6zz0xn1-111" value="+ method(type): type" style="text;strokeColor=none;fillColor=none;align=left;verticalAlign=top;spacingLeft=4;spacingRight=4;overflow=hidden;rotatable=0;points=[[0,0.5],[1,0.5]];portConstraint=eastwest;whiteSpace=wrap;html=1;" vertex="1" parent="L-9knCCjojrNT6zz0xn1-9">
          <mxGeometry y="138" width="259" height="26" as="geometry" />
        </mxCell>
        <mxCell id="L-9knCCjojrNT6zz0xn1-109" value="&lt;p style=&quot;margin:0px;margin-top:4px;text-align:center;&quot;&gt;&lt;b&gt;Class&lt;/b&gt;&lt;/p&gt;&lt;hr size=&quot;1&quot; style=&quot;border-style:solid;&quot;/&gt;&lt;p style=&quot;margin:0px;margin-left:4px;&quot;&gt;+ field: Type&lt;/p&gt;&lt;hr size=&quot;1&quot; style=&quot;border-style:solid;&quot;/&gt;&lt;p style=&quot;margin:0px;margin-left:4px;&quot;&gt;+ method(): Type&lt;/p&gt;" style="verticalAlign=top;align=left;overflow=fill;html=1;whiteSpace=wrap;" vertex="1" parent="1">
          <mxGeometry x="362" y="-39" width="160" height="90" as="geometry" />
        </mxCell>
        <mxCell id="L-9knCCjojrNT6zz0xn1-119" value="BLDC Motor Control" style="swimlane;fontStyle=1;align=center;verticalAlign=top;childLayout=stackLayout;horizontal=1;startSize=26;horizontalStack=0;resizeParent=1;resizeParentMax=0;resizeLast=0;collapsible=1;marginBottom=0;whiteSpace=wrap;html=1;" vertex="1" parent="1">
          <mxGeometry x="-60" y="145" width="244" height="320" as="geometry" />
        </mxCell>
        <mxCell id="L-9knCCjojrNT6zz0xn1-120" value="+ pin_A_PWM : int" style="text;strokeColor=none;fillColor=none;align=left;verticalAlign=top;spacingLeft=4;spacingRight=4;overflow=hidden;rotatable=0;points=[[0,0.5],[1,0.5]];portConstraint=eastwest;whiteSpace=wrap;html=1;" vertex="1" parent="L-9knCCjojrNT6zz0xn1-119">
          <mxGeometry y="26" width="244" height="26" as="geometry" />
        </mxCell>
        <mxCell id="L-9knCCjojrNT6zz0xn1-127" value="+ pin_B&lt;span style=&quot;background-color: transparent; color: light-dark(rgb(0, 0, 0), rgb(255, 255, 255));&quot;&gt;_PWM : int&lt;/span&gt;" style="text;strokeColor=none;fillColor=none;align=left;verticalAlign=top;spacingLeft=4;spacingRight=4;overflow=hidden;rotatable=0;points=[[0,0.5],[1,0.5]];portConstraint=eastwest;whiteSpace=wrap;html=1;" vertex="1" parent="L-9knCCjojrNT6zz0xn1-119">
          <mxGeometry y="52" width="244" height="26" as="geometry" />
        </mxCell>
        <mxCell id="L-9knCCjojrNT6zz0xn1-128" value="+ pin_C&lt;span style=&quot;background-color: transparent; color: light-dark(rgb(0, 0, 0), rgb(255, 255, 255));&quot;&gt;_PWM : int&lt;/span&gt;" style="text;strokeColor=none;fillColor=none;align=left;verticalAlign=top;spacingLeft=4;spacingRight=4;overflow=hidden;rotatable=0;points=[[0,0.5],[1,0.5]];portConstraint=eastwest;whiteSpace=wrap;html=1;" vertex="1" parent="L-9knCCjojrNT6zz0xn1-119">
          <mxGeometry y="78" width="244" height="26" as="geometry" />
        </mxCell>
        <mxCell id="L-9knCCjojrNT6zz0xn1-129" value="+ velocity_limit&amp;nbsp;&lt;span style=&quot;background-color: transparent; color: light-dark(rgb(0, 0, 0), rgb(255, 255, 255));&quot;&gt;: int&lt;/span&gt;" style="text;strokeColor=none;fillColor=none;align=left;verticalAlign=top;spacingLeft=4;spacingRight=4;overflow=hidden;rotatable=0;points=[[0,0.5],[1,0.5]];portConstraint=eastwest;whiteSpace=wrap;html=1;" vertex="1" parent="L-9knCCjojrNT6zz0xn1-119">
          <mxGeometry y="104" width="244" height="26" as="geometry" />
        </mxCell>
        <mxCell id="L-9knCCjojrNT6zz0xn1-131" value="+ velocity_limit : int" style="text;strokeColor=none;fillColor=none;align=left;verticalAlign=top;spacingLeft=4;spacingRight=4;overflow=hidden;rotatable=0;points=[[0,0.5],[1,0.5]];portConstraint=eastwest;whiteSpace=wrap;html=1;" vertex="1" parent="L-9knCCjojrNT6zz0xn1-119">
          <mxGeometry y="130" width="244" height="26" as="geometry" />
        </mxCell>
        <mxCell id="L-9knCCjojrNT6zz0xn1-130" value="+&amp;nbsp;&lt;span style=&quot;background-color: transparent;&quot;&gt;voltage_limit : int&lt;/span&gt;&lt;div&gt;&lt;span style=&quot;background-color: transparent;&quot;&gt;&lt;font color=&quot;rgba(0, 0, 0, 0)&quot;&gt;: in&lt;/font&gt;&lt;/span&gt;&lt;/div&gt;" style="text;strokeColor=none;fillColor=none;align=left;verticalAlign=top;spacingLeft=4;spacingRight=4;overflow=hidden;rotatable=0;points=[[0,0.5],[1,0.5]];portConstraint=eastwest;whiteSpace=wrap;html=1;" vertex="1" parent="L-9knCCjojrNT6zz0xn1-119">
          <mxGeometry y="156" width="244" height="26" as="geometry" />
        </mxCell>
        <mxCell id="L-9knCCjojrNT6zz0xn1-132" value="+&amp;nbsp;&lt;span style=&quot;background-color: transparent;&quot;&gt;current_limit : int&lt;/span&gt;" style="text;strokeColor=none;fillColor=none;align=left;verticalAlign=top;spacingLeft=4;spacingRight=4;overflow=hidden;rotatable=0;points=[[0,0.5],[1,0.5]];portConstraint=eastwest;whiteSpace=wrap;html=1;" vertex="1" parent="L-9knCCjojrNT6zz0xn1-119">
          <mxGeometry y="182" width="244" height="26" as="geometry" />
        </mxCell>
        <mxCell id="L-9knCCjojrNT6zz0xn1-133" value="+ modulation&amp;nbsp;&lt;span style=&quot;background-color: transparent; color: light-dark(rgb(0, 0, 0), rgb(255, 255, 255));&quot;&gt;: FOC_MODULATION&lt;/span&gt;" style="text;strokeColor=none;fillColor=none;align=left;verticalAlign=top;spacingLeft=4;spacingRight=4;overflow=hidden;rotatable=0;points=[[0,0.5],[1,0.5]];portConstraint=eastwest;whiteSpace=wrap;html=1;" vertex="1" parent="L-9knCCjojrNT6zz0xn1-119">
          <mxGeometry y="208" width="244" height="26" as="geometry" />
        </mxCell>
        <mxCell id="L-9knCCjojrNT6zz0xn1-122" value="" style="line;strokeWidth=1;fillColor=none;align=left;verticalAlign=middle;spacingTop=-1;spacingLeft=3;spacingRight=3;rotatable=0;labelPosition=right;points=[];portConstraint=eastwest;strokeColor=inherit;" vertex="1" parent="L-9knCCjojrNT6zz0xn1-119">
          <mxGeometry y="234" width="244" height="8" as="geometry" />
        </mxCell>
        <mxCell id="L-9knCCjojrNT6zz0xn1-124" value="+ init(type): void" style="text;strokeColor=none;fillColor=none;align=left;verticalAlign=top;spacingLeft=4;spacingRight=4;overflow=hidden;rotatable=0;points=[[0,0.5],[1,0.5]];portConstraint=eastwest;whiteSpace=wrap;html=1;" vertex="1" parent="L-9knCCjojrNT6zz0xn1-119">
          <mxGeometry y="242" width="244" height="26" as="geometry" />
        </mxCell>
        <mxCell id="L-9knCCjojrNT6zz0xn1-125" value="+ enable&lt;span style=&quot;background-color: transparent; color: light-dark(rgb(0, 0, 0), rgb(255, 255, 255));&quot;&gt;(type): type&lt;/span&gt;" style="text;strokeColor=none;fillColor=none;align=left;verticalAlign=top;spacingLeft=4;spacingRight=4;overflow=hidden;rotatable=0;points=[[0,0.5],[1,0.5]];portConstraint=eastwest;whiteSpace=wrap;html=1;" vertex="1" parent="L-9knCCjojrNT6zz0xn1-119">
          <mxGeometry y="268" width="244" height="26" as="geometry" />
        </mxCell>
        <mxCell id="L-9knCCjojrNT6zz0xn1-134" value="+ disable&lt;span style=&quot;background-color: transparent; color: light-dark(rgb(0, 0, 0), rgb(255, 255, 255));&quot;&gt;(type): type&lt;/span&gt;" style="text;strokeColor=none;fillColor=none;align=left;verticalAlign=top;spacingLeft=4;spacingRight=4;overflow=hidden;rotatable=0;points=[[0,0.5],[1,0.5]];portConstraint=eastwest;whiteSpace=wrap;html=1;" vertex="1" parent="L-9knCCjojrNT6zz0xn1-119">
          <mxGeometry y="294" width="244" height="26" as="geometry" />
        </mxCell>
      </root>
    </mxGraphModel>
  </diagram>
</mxfile>
